<svg width="70" height="74" viewBox="0 0 70 74" fill="none" xmlns="http://www.w3.org/2000/svg">
<path d="M0 26.789V43.4545C0 44.0753 0.550383 44.5687 1.2428 44.5687H8.00718V56.3476C8.00718 58.4487 9.90689 60.1519 12.2505 60.1519H25.1756V72.8858C25.1756 73.5066 25.726 74 26.4184 74H49.8895C50.582 74 51.1324 73.5066 51.1324 72.8858V36.8647H51.6295C52.1976 36.8647 52.6947 36.5304 52.8368 36.037L53.689 33.1241C55.1803 32.7739 56.6184 32.2487 57.9678 31.5324L60.8617 33.0445C61.3411 33.2992 61.9625 33.2355 62.3708 32.8694L65.5133 30.0521C65.9039 29.7019 65.9927 29.1448 65.7086 28.6991L64.022 26.1045C64.8032 24.8948 65.4068 23.6214 65.7974 22.2684L69.0464 21.5044C69.5968 21.3771 69.9697 20.9314 69.9697 20.422V16.4268C69.9697 15.9174 69.5968 15.4717 69.0464 15.3444L65.7974 14.5803C65.4068 13.2274 64.8209 11.954 64.022 10.7442L65.7086 8.14971C65.9927 7.71994 65.9217 7.16283 65.5133 6.79673L62.3708 3.97935C61.9802 3.62917 61.3588 3.54958 60.8617 3.80426L57.95 5.33233C56.6007 4.63196 55.1803 4.09077 53.6712 3.74059L52.819 0.827705C52.677 0.334266 52.1799 0 51.6117 0H47.1554C46.5873 0 46.0901 0.334266 45.9481 0.827705L45.1136 3.74059C43.6045 4.09077 42.1842 4.61605 40.8349 5.33233L37.9409 3.82018C37.4616 3.5655 36.8401 3.62917 36.4318 3.99527L33.2893 6.81265C32.8987 7.17875 32.8099 7.71994 33.094 8.16563L34.0527 9.63003H19.1746C8.59308 9.61411 0 17.3181 0 26.789ZM48.6467 71.7875H27.6612V59.0536C27.6612 58.4328 27.1108 57.9393 26.4184 57.9393H12.2505C11.274 57.9393 10.4928 57.2231 10.4928 56.3635V43.4704C10.4928 42.8496 9.9424 42.3562 9.24998 42.3562H2.4856V26.8049C2.4856 18.5597 9.96015 11.8585 19.1569 11.8585H34.1415C34.1237 11.8903 34.106 11.9221 34.0882 11.954C33.9995 12.1131 33.9284 12.2723 33.8397 12.4315C33.8219 12.4792 33.7864 12.527 33.7687 12.5747C33.6799 12.7817 33.5911 12.9727 33.5023 13.1796C33.4846 13.2274 33.4668 13.2592 33.4491 13.3069C33.3781 13.4661 33.3248 13.6412 33.2538 13.8163C33.236 13.88 33.2183 13.9277 33.2005 13.9914C33.1295 14.1983 33.0585 14.4052 33.0052 14.6281L29.7562 15.3921C29.2058 15.5195 28.833 15.9652 28.833 16.4745V20.4698C28.833 20.9791 29.2058 21.4248 29.7562 21.5522L33.0052 22.3162C33.3958 23.6533 33.9817 24.9426 34.7806 26.1523L33.094 28.7468C32.8099 29.1766 32.8809 29.7337 33.2893 30.0998L36.4318 32.9172C36.6804 33.14 37.0177 33.2515 37.355 33.2355C37.5503 33.2355 37.7634 33.1878 37.9409 33.0923L40.8349 31.5801C42.1842 32.2805 43.6045 32.8217 45.1136 33.1719L45.9659 36.0848C46.1079 36.5782 46.605 36.9125 47.1731 36.9125H48.6467V71.7875ZM37.5148 6.17595L40.2312 7.5926C40.6396 7.79953 41.1367 7.79953 41.5273 7.56077C43.0186 6.68531 44.652 6.08045 46.3742 5.7621C46.8358 5.68251 47.1909 5.36416 47.3152 4.95031L48.1141 2.22844H50.653L51.4519 4.95031C51.5762 5.36416 51.9313 5.6666 52.3929 5.7621C54.1151 6.09637 55.7485 6.70123 57.2398 7.56077C57.6304 7.78361 58.1453 7.79953 58.5359 7.5926L61.2523 6.17595L63.0455 7.78361L61.4653 10.219C61.2345 10.5851 61.2345 11.0308 61.5009 11.3809C62.4596 12.718 63.152 14.1824 63.5071 15.7264C63.5959 16.1402 63.9509 16.4586 64.4126 16.57L67.4485 17.2863V19.5625L64.4126 20.2788C63.9509 20.3902 63.6136 20.7085 63.5071 21.1224C63.1343 22.6664 62.4596 24.1308 61.5009 25.4678C61.2523 25.818 61.2345 26.2796 61.4653 26.6298L63.0455 29.0652L61.2523 30.6728L58.5359 29.2562C58.1275 29.0493 57.6304 29.0493 57.2398 29.288C55.7485 30.1635 54.1151 30.7683 52.3929 31.0867C51.9313 31.1663 51.5762 31.4846 51.4519 31.8985L50.653 34.6203H49.8895H48.1319L47.3329 31.8985C47.2087 31.4846 46.8536 31.1822 46.392 31.0867C44.6698 30.7524 43.0364 30.1476 41.545 29.288C41.1544 29.0652 40.6396 29.0493 40.249 29.2562L37.5326 30.6728L35.7394 29.0652L37.3195 26.6298C37.5503 26.2637 37.5503 25.818 37.284 25.4678C36.3075 24.1308 35.6329 22.6664 35.2778 21.1224C35.189 20.7085 34.8339 20.3902 34.3723 20.2788L31.3363 19.5625V17.2863L34.3723 16.57C34.4788 16.5382 34.5854 16.5063 34.6919 16.4427C34.9937 16.2835 35.2068 16.0288 35.2778 15.7105C35.5974 14.3575 36.1477 13.0682 36.9467 11.8744C37.0532 11.6993 37.1775 11.5401 37.3018 11.365C37.5503 11.0148 37.5681 10.5692 37.3373 10.2031L37.3018 10.1553L35.7394 7.76769L37.5148 6.17595Z" fill="#E2E2E2"/>
<path d="M15.7469 21.6785C12.6931 21.6785 10.2075 23.9069 10.2075 26.6447C10.2075 29.3825 12.6931 31.6109 15.7469 31.6109C18.8006 31.6109 21.2862 29.3825 21.2862 26.6447C21.2684 23.891 18.8006 21.6785 15.7469 21.6785ZM15.7469 29.3666C14.0602 29.3666 12.6931 28.1409 12.6931 26.6288C12.6931 25.1166 14.0602 23.891 15.7469 23.891C17.4335 23.891 18.8006 25.1166 18.8006 26.6288C18.7828 28.1409 17.4158 29.3666 15.7469 29.3666Z" fill="#E2E2E2"/>
<path d="M44.7406 22.7932C45.9302 23.5413 47.2795 24.0189 48.7354 24.1621V25.2445C48.7354 25.6584 49.1259 25.9926 49.5876 25.9926C50.0492 25.9926 50.422 25.6584 50.422 25.2445V24.194C52.8899 23.987 54.5765 22.7136 54.5765 20.7876C54.5765 18.9253 53.316 17.8588 50.351 17.1903V13.8317C51.0079 13.975 51.6826 14.2297 52.3572 14.5958C52.5525 14.7072 52.7478 14.7549 52.9431 14.7549C53.5468 14.7549 54.0261 14.3411 54.0261 13.7999C54.0261 13.386 53.7598 13.1154 53.4402 12.9563C52.5525 12.4469 51.576 12.1127 50.422 12.0012V11.6192C50.422 11.2054 50.0492 10.8711 49.5876 10.8711C49.1259 10.8711 48.7354 11.2054 48.7354 11.6192V11.9853C46.303 12.1604 44.6519 13.4497 44.6519 15.328C44.6519 16.1238 44.8649 16.7605 45.3265 17.2699C45.9834 18.018 47.1375 18.5274 48.8241 18.9253V22.3635C47.7589 22.1884 46.8534 21.7904 45.9479 21.2015C45.7704 21.0741 45.5396 21.0105 45.3088 21.0105C44.7051 21.0105 44.2435 21.4243 44.2435 21.9655C44.208 22.3316 44.4033 22.6022 44.7406 22.7932ZM50.351 19.2596C51.8424 19.6734 52.2862 20.1509 52.2862 20.915C52.2862 21.7586 51.6115 22.3157 50.351 22.4271V19.2596ZM48.0252 16.5536C47.173 16.1875 46.9422 15.7896 46.9422 15.2006C46.9422 14.4366 47.5636 13.8317 48.8064 13.7362V16.8242C48.5045 16.7446 48.2382 16.6491 48.0252 16.5536Z" fill="#E2E2E2"/>
</svg>
