<svg width="50" height="50" viewBox="0 0 50 50" fill="none" xmlns="http://www.w3.org/2000/svg">
<rect x="0.5" y="0.5" width="49" height="49" rx="24.5" stroke="#E0E0E0"/>
<path d="M16.4843 30.231C16.6685 30.4586 16.8935 30.6411 17.145 30.7666C17.3965 30.8922 17.6688 30.958 17.9446 30.96L22.3174 30.96L22.3174 32.4C22.3196 33.354 22.6622 34.2683 23.2703 34.943C23.8784 35.6176 24.7026 35.9976 25.5626 36C25.6832 35.9989 25.8012 35.9615 25.9041 35.8917C26.007 35.822 26.0908 35.7225 26.1467 35.604L29.2134 28.8L32.7019 28.8C33.0462 28.8 33.3764 28.6483 33.6198 28.3782C33.8632 28.1082 34 27.7419 34 27.36L34 19.44C34 19.0581 33.8632 18.6918 33.6198 18.4218C33.3764 18.1517 33.0462 18 32.7019 18L18.9181 18C18.4445 18.0022 17.9877 18.195 17.6326 18.5426C17.2775 18.8902 17.0482 19.369 16.9873 19.89L16.0137 28.53C15.9813 28.8342 16.0064 29.1426 16.0875 29.4355C16.1685 29.7284 16.3036 29.9993 16.4843 30.231ZM32.7019 27.36L29.4568 27.36L29.4568 19.44L32.7019 19.44L32.7019 27.36ZM17.3037 28.71L18.2772 20.07C18.2969 19.8966 18.3728 19.737 18.4907 19.6211C18.6087 19.5052 18.7606 19.4408 18.9181 19.44L28.1587 19.44L28.1587 27.909L25.1813 34.515C24.7403 34.4173 24.3433 34.1533 24.0579 33.7677C23.7725 33.3822 23.6162 32.8989 23.6155 32.4L23.6155 30.24C23.6155 30.049 23.5471 29.8659 23.4254 29.7309C23.3037 29.5959 23.1386 29.52 22.9665 29.52L17.9446 29.52C17.8527 29.519 17.762 29.4969 17.6783 29.455C17.5945 29.4132 17.5194 29.3526 17.4578 29.277C17.3978 29.1997 17.3531 29.1093 17.3265 29.0116C17.2999 28.914 17.2922 28.8112 17.3037 28.71Z" fill="white"/>
</svg>
