<svg width="12" height="18" viewBox="0 0 12 18" fill="none" xmlns="http://www.w3.org/2000/svg">
<path d="M4 2C4 3.10457 3.10457 4 2 4C0.89543 4 0 3.10457 0 2C0 0.89543 0.89543 0 2 0C3.10457 0 4 0.89543 4 2Z" fill="black"/>
<path d="M12 2C12 3.10457 11.1046 4 10 4C8.89543 4 8 3.10457 8 2C8 0.89543 8.89543 0 10 0C11.1046 0 12 0.89543 12 2Z" fill="black"/>
<path d="M4 9C4 10.1046 3.10457 11 2 11C0.89543 11 0 10.1046 0 9C0 7.89543 0.89543 7 2 7C3.10457 7 4 7.89543 4 9Z" fill="black"/>
<path d="M12 9C12 10.1046 11.1046 11 10 11C8.89543 11 8 10.1046 8 9C8 7.89543 8.89543 7 10 7C11.1046 7 12 7.89543 12 9Z" fill="black"/>
<path d="M4 16C4 17.1046 3.10457 18 2 18C0.89543 18 0 17.1046 0 16C0 14.8954 0.89543 14 2 14C3.10457 14 4 14.8954 4 16Z" fill="black"/>
<path d="M12 16C12 17.1046 11.1046 18 10 18C8.89543 18 8 17.1046 8 16C8 14.8954 8.89543 14 10 14C11.1046 14 12 14.8954 12 16Z" fill="black"/>
</svg>
