<svg width="50" height="50" viewBox="0 0 50 50" fill="none" xmlns="http://www.w3.org/2000/svg">
<rect x="49.5" y="49.5" width="49" height="49" rx="24.5" transform="rotate(-180 49.5 49.5)" stroke="#E0E0E0"/>
<path d="M33.5157 20.769C33.3315 20.5414 33.1065 20.3589 32.855 20.2334C32.6035 20.1078 32.3312 20.042 32.0554 20.04L27.6826 20.04L27.6826 18.6C27.6804 17.646 27.3378 16.7317 26.7297 16.057C26.1216 15.3824 25.2974 15.0024 24.4374 15C24.3168 15.0011 24.1988 15.0385 24.0959 15.1083C23.993 15.178 23.9092 15.2775 23.8533 15.396L20.7866 22.2L17.2981 22.2C16.9538 22.2 16.6236 22.3517 16.3802 22.6218C16.1368 22.8918 16 23.2581 16 23.64L16 31.56C16 31.9419 16.1368 32.3082 16.3802 32.5782C16.6236 32.8483 16.9538 33 17.2981 33L31.0819 33C31.5555 32.9978 32.0123 32.805 32.3674 32.4574C32.7225 32.1098 32.9518 31.631 33.0127 31.11L33.9863 22.47C34.0187 22.1658 33.9936 21.8574 33.9125 21.5645C33.8315 21.2716 33.6964 21.0007 33.5157 20.769ZM17.2981 23.64L20.5432 23.64L20.5432 31.56L17.2981 31.56L17.2981 23.64ZM32.6963 22.29L31.7228 30.93C31.7031 31.1034 31.6272 31.263 31.5093 31.3789C31.3913 31.4948 31.2394 31.5592 31.0819 31.56L21.8413 31.56L21.8413 23.091L24.8187 16.485C25.2597 16.5827 25.6567 16.8468 25.9421 17.2323C26.2275 17.6178 26.3838 18.1011 26.3845 18.6L26.3845 20.76C26.3845 20.951 26.4529 21.1341 26.5746 21.2691C26.6963 21.4041 26.8614 21.48 27.0335 21.48L32.0554 21.48C32.1473 21.481 32.238 21.5031 32.3217 21.545C32.4055 21.5868 32.4806 21.6474 32.5422 21.723C32.6022 21.8003 32.6469 21.8907 32.6735 21.9884C32.7001 22.086 32.7078 22.1888 32.6963 22.29Z" fill="white"/>
</svg>
