<svg width="52" height="52" viewBox="0 0 52 52" fill="none" xmlns="http://www.w3.org/2000/svg">
<rect x="0.5" y="0.5" width="51" height="51" rx="25.5" stroke="#E0E0E0"/>
<g clip-path="url(#clip0_2152_75)">
<path d="M34.425 33.3951L30.141 28.9395C31.2425 27.6301 31.846 25.9826 31.846 24.2675C31.846 20.2603 28.5858 17 24.5785 17C20.5713 17 17.311 20.2603 17.311 24.2675C17.311 28.2747 20.5713 31.535 24.5785 31.535C26.0829 31.535 27.5165 31.0812 28.7422 30.2199L33.0587 34.7093C33.2392 34.8967 33.4818 35 33.7419 35C33.988 35 34.2215 34.9062 34.3988 34.7355C34.7755 34.3731 34.7875 33.7721 34.425 33.3951ZM24.5785 18.8959C27.5405 18.8959 29.9502 21.3055 29.9502 24.2675C29.9502 27.2295 27.5405 29.6391 24.5785 29.6391C21.6166 29.6391 19.2069 27.2295 19.2069 24.2675C19.2069 21.3055 21.6166 18.8959 24.5785 18.8959Z" fill="#E0E0E0"/>
</g>
<defs>
<clipPath id="clip0_2152_75">
<rect width="18" height="18" fill="white" transform="translate(17 17)"/>
</clipPath>
</defs>
</svg>
